{"title":"Striker - DVDRip - XviD - 1CDRip - [DDR].avi","uid":8317799,"size":733685760,"categoryP":"video","categoryS":"movies","magnet":"?xt=urn:btih:c7658b18be656fa8b6430cad5ea36dfe7f63239e&amp;dn=Striker+-+DVDRip+-+XviD+-+1CDRip+-+%5BDDR%5D.avi&amp;tr=udp%3A%2F%2Ftracker.openbittorrent.com%3A80&amp;tr=udp%3A%2F%2Fopen.demonii.com%3A1337&amp;tr=udp%3A%2F%2Ftracker.coppersurfer.tk%3A6969&amp;tr=udp%3A%2F%2Fexodus.desync.com%3A6969","seeders":1,"leechers":0,"uploader":"onlyjustabhi","files":1,"time":1364628572,"description":"Striker - DVDRip - XviD - 1CDRip - [DDR]\n &lt;a href=&quot;\nhttp://www.imdb.com/title/tt1573482/&quot; rel=&quot;nofollow&quot; target=&quot;_NEW&quot;&gt;\nhttp://www.imdb.com/title/tt1573482/&lt;/a&gt;\n\n &lt;a href=&quot;\nhttp://s5.postimg.org/epuysiqcn/Striker_DVDRip_Xvi_D_1_CDRip_DDR_avi_thu.png&quot; rel=&quot;nofollow&quot; target=&quot;_NEW&quot;&gt;\nhttp://s5.postimg.org/epuysiqcn/Striker_DVDRip_Xvi_D_1_CDRip_DDR_avi_thu.png&lt;/a&gt;\n\n\n\n\nSet in a Mumbai ghetto in the mid '80's and based on true life accounts, Striker is a story of triumph of human spirit over indomitable odds.\n\nBorn into a poor family, Surya grows up with few luxuries. Poor health keeps him away from school often and that is when his elder brother, Chandrakant, introduces him to carrom. Winning the Junior Carrom Championship at 12 is not enough to keep Surya's fire for the sport burning through adolescence. Hopes for a job in Dubai replace the passion for carrom as Surya grows into a young man. Duped by a bogus overseas employment agency, Surya loses all his hard earned money he had saved for going to Dubai. Surya is forced to cross paths with Jaleel.\n\nSince the 70's when the settlements in the ghetto began, Jaleel had acquired a strong hold in the area. He had his hands in every illicit activity since then. Feeding on the weaknesses of people, Jaleel was the self-proclaimed king of Malwani. Reintroduced to carrom by his childhood friend Zaid, this time to the carrom hustling scene, Surya starts playing again. Being gypped of his hard earned money by the same man who had caused misery for many families; Surya decides to take on Jaleel on his turf. His patience and cool attitude are Surya's biggest strengths. But life has its own ways of testing it.\n\n\n\n\nGeneral\nComplete name                            : F:Hindi MoviezStriker - DVDRip - XviD - 1CDRip - [DDR]Striker - DVDRip - XviD - 1CDRip - [DDR].avi\nFormat                                   : AVI\nFormat/Info                              : Audio Video Interleave\nFile size                                : 700 MiB\nDuration                                 : 2h 7mn\nOverall bit rate                         : 769 Kbps\nWriting application                      : VirtualDubMod 1.5.10.2 (build 2540/release)\nWriting library                          : VirtualDubMod build 2540/release\n\nVideo\nID                                       : 0\nFormat                                   : MPEG-4 Visual\nFormat profile                           : Advanced Simple@L5\nFormat settings, BVOP                    : 1\nFormat settings, QPel                    : No\nFormat settings, GMC                     : No warppoints\nFormat settings, Matrix                  : Custom\nCodec ID                                 : XVID\nCodec ID/Hint                            : XviD\nDuration                                 : 2h 7mn\nBit rate                                 : 632 Kbps\nWidth                                    : 688 pixels\nHeight                                   : 288 pixels\nDisplay aspect ratio                     : 2.40:1\nFrame rate                               : 23.976 fps\nColor space                              : YUV\nChroma subsampling                       : 4:2:0\nBit depth                                : 8 bits\nScan type                                : Progressive\nCompression mode                         : Lossy\nBits/(Pixel*Frame)                       : 0.133\nStream size                              : 575 MiB (82%)\nWriting library                          : XviD 1.2.1 (UTC 2008-12-04)\n\nAudio\nID                                       : 1\nFormat                                   : AC-3\nFormat/Info                              : Audio Coding 3\nMode extension                           : CM (complete main)\nFormat settings, Endianness              : Big\nCodec ID                                 : 2000\nDuration                                 : 2h 7mn\nBit rate mode                            : Constant\nBit rate                                 : 128 Kbps\nChannel(s)                               : 6 channels\nChannel positions                        : Front: L C R, Side: L R, LFE\nSampling rate                            : 48.0 KHz\nBit depth                                : 16 bits\nCompression mode                         : Lossy\nStream size                              : 116 MiB (17%)\nAlignment                                : Split accross interleaves\nInterleave, duration                     : 42 ms (1.00 video frame)\nInterleave, preload duration             : 500 ms\nTitle                                    : DDR KaMaL\n\n","torrent":{"xt":"urn:btih:c7658b18be656fa8b6430cad5ea36dfe7f63239e","amp;dn":"Striker+-+DVDRip+-+XviD+-+1CDRip+-+%5BDDR%5D.avi","amp;tr":["udp%3A%2F%2Ftracker.openbittorrent.com%3A80","udp%3A%2F%2Fopen.demonii.com%3A1337","udp%3A%2F%2Ftracker.coppersurfer.tk%3A6969","udp%3A%2F%2Fexodus.desync.com%3A6969"],"infoHash":"c7658b18be656fa8b6430cad5ea36dfe7f63239e","infoHashBuffer":{"type":"Buffer","data":[199,101,139,24,190,101,111,168,182,67,12,173,94,163,109,254,127,99,35,158]},"announce":[],"urlList":[]}}